<svg width="32" height="30" viewBox="0 0 32 30" fill="none" xmlns="http://www.w3.org/2000/svg">
<path d="M25.6911 25.056C27.3407 24.6432 28.5711 24.232 28.5711 24.232C28.9498 24.0386 29.2667 23.7427 29.4856 23.3781C29.7046 23.0135 29.8168 22.5948 29.8095 22.1696V19.6944C29.1743 21.9432 27.7001 23.8624 25.6911 25.056ZM27.3407 17.6336L24.4607 16.3952V18.04C24.3781 18.7645 24.1536 19.4656 23.8 20.1034C23.4464 20.7411 22.9706 21.3029 22.3999 21.7568C22.8127 21.7568 22.8127 22.1696 22.8127 22.5824L22.3999 23.4064L24.0495 24.232C27.3487 22.9936 28.1743 19.2832 28.5855 17.2208L27.3407 17.6336ZM16.2063 22.5824C15.7504 21.829 15.4684 20.9834 15.3807 20.1072V26.7056C15.424 27.0186 15.569 27.3087 15.7935 27.5312H17.0303C18.741 27.4196 20.4175 27.0001 21.9791 26.2928C20.8022 26.1402 19.6739 25.7282 18.6756 25.0865C17.6772 24.4449 16.8339 23.5896 16.2063 22.5824ZM19.5055 14.3344C19.4845 14.7836 19.6316 15.2246 19.9183 15.5712C20.3295 15.5712 20.7423 15.5712 21.1551 14.7456C21.5679 13.92 21.1551 13.096 20.3295 13.096C20.0975 13.2145 19.8999 13.3906 19.7556 13.6075C19.6113 13.8243 19.5252 14.0746 19.5055 14.3344ZM15.7935 11.8592V16.808C16.024 15.1227 16.6734 13.5221 17.6821 12.1525C18.6908 10.7829 20.0268 9.68802 21.5679 8.96796L17.0303 10.2048C16.2063 10.2096 15.7935 11.0352 15.7935 11.8592ZM14.1439 11.8592C14.0878 11.1029 14.3077 10.352 14.7628 9.7454C15.2179 9.13882 15.8773 8.71768 16.6191 8.55996L26.9279 6.08636L18.2687 2.78716H16.6191L5.07188 5.26076C5.07188 5.26076 3.83348 5.67356 3.83348 6.49756V7.31996L3.00948 8.97276V11.4464L2.18388 11.8592V12.6848L3.00948 13.096V15.16L3.83348 16.3968V21.7584C3.83107 21.8674 3.85079 21.9759 3.89143 22.0771C3.93207 22.1784 3.99279 22.2704 4.06994 22.3475C4.14709 22.4246 4.23906 22.4854 4.34031 22.526C4.44157 22.5667 4.55 22.5864 4.65908 22.584C5.48308 22.9952 10.8447 25.464 14.1439 26.7072V11.8592ZM24.4543 11.8592L27.3343 13.096L28.1599 12.6848C27.6578 12.055 27.2414 11.3615 26.9215 10.6224C26.1695 10.1647 25.324 9.88255 24.4479 9.79676L24.4543 11.8592ZM28.9903 7.31996L23.2175 8.55676C24.0153 8.3419 24.8559 8.34322 25.6531 8.56057C26.4502 8.77792 27.1751 9.20348 27.7535 9.79356C28.2481 10.0985 28.6584 10.5226 28.9466 11.0272C29.2348 11.5318 29.3918 12.1006 29.4031 12.6816V7.31996C29.4031 6.91036 28.9903 6.91036 28.9903 7.31996ZM30.8687 5.23996C30.5651 4.93332 30.1737 4.72867 29.7487 4.65436L19.1615 0.585564C18.7181 0.34375 18.2226 0.213194 17.7176 0.205111C17.2126 0.197029 16.7132 0.311663 16.2623 0.539164C14.6447 0.943964 4.83828 2.98876 4.67028 3.02716C3.86607 3.19225 3.14175 3.6255 2.61592 4.25598C2.09008 4.88645 1.7939 5.67679 1.77588 6.49756V6.76636L1.01588 8.27996L0.959877 10.2416L0.134277 10.6544V13.7632L0.545477 14.176V15.7568L1.37108 16.9936V21.7568C1.38593 22.4115 1.5891 23.048 1.95628 23.5903C2.32345 24.1325 2.83908 24.5575 3.44148 24.8144C3.96948 24.9904 6.42068 26.0352 8.79028 27.0448C14.6479 29.5408 15.3087 29.7952 15.5951 29.7952H16.4207L17.3455 29.7856C18.9327 29.5216 22.8911 28.2992 25.7839 27.4064C27.1791 26.9744 28.6223 26.5296 28.7919 26.4976L29.0671 26.4304C29.9091 26.0839 30.6276 25.4924 31.1294 24.7327C31.6312 23.973 31.8932 23.08 31.8815 22.1696V7.73596C31.9303 7.26877 31.8635 6.79673 31.6868 6.36146C31.5102 5.92619 31.2292 5.54105 30.8687 5.23996ZM30.6431 22.1712C30.6501 22.8364 30.4585 23.4887 30.0928 24.0444C29.7271 24.6002 29.204 25.0343 28.5903 25.2912C28.2703 25.3536 27.5551 25.5696 25.4127 26.232C22.5551 27.1136 18.6399 28.3232 17.2367 28.5648L15.6863 28.576C15.2719 28.4752 11.7999 26.9952 9.26548 25.9152C6.65428 24.7952 4.39828 23.8352 3.90228 23.6752C3.52722 23.5084 3.20607 23.2404 2.97488 22.9013C2.74369 22.5621 2.61161 22.1652 2.59348 21.7552V16.6224L1.76788 15.3856V13.6672L1.35668 13.2544V11.4144L2.18068 11V8.70556L2.94068 7.18556L3.00628 6.49756C3.00628 6.09756 3.00628 4.87836 4.99028 4.21276C5.39508 4.12956 14.9199 2.14396 16.6863 1.68636C16.9922 1.52563 17.3334 1.44366 17.6789 1.44785C18.0245 1.45204 18.3635 1.54226 18.6655 1.71036L29.3855 5.83516L29.6063 5.87676C29.7545 5.91861 29.8891 5.99861 29.9967 6.10876C30.2411 6.29629 30.4298 6.54685 30.5425 6.83353C30.6553 7.12021 30.6878 7.43219 30.6367 7.73596L30.6431 22.1712Z" fill="#1877F2"/>
</svg>
